<?xml version="1.0" encoding="utf-8"?>
<!-- Generator: Adobe Illustrator 18.0.0, SVG Export Plug-In . SVG Version: 6.00 Build 0)  -->
<!DOCTYPE svg PUBLIC "-//W3C//DTD SVG 1.1//EN" "http://www.w3.org/Graphics/SVG/1.1/DTD/svg11.dtd">
<svg class="leftSandal" id="leftSandal" version="1.1" id="Layer_1" xmlns="http://www.w3.org/2000/svg" xmlns:xlink="http://www.w3.org/1999/xlink" x="0px" y="0px"
	 viewBox="199 17 292 497" enable-background="new 0 0 500 500" xml:space="preserve">
<path class="outsideShoe" fill="none" stroke="#000000" stroke-width="3" stroke-linecap="round" stroke-linejoin="round" stroke-miterlimit="10" d="
	M384.6,505c-27.8,5.1-58.2,9.4-83.2,4.2c-24.9-5.2-73.7-36-75.1-86.7c-18.7-110.4-34.5-227.3-18-281.6
	c15.9-32.8,57.6-84.5,102.5-101.5c50.7-18.1,92.4-24,125.5-18c26.4,19.6,40.1,52,50.7,87.7c1.4,54.3,7.6,75.4-24.5,138.3
	c-16.6,80.1-20.9,92.6-11.4,183.6C448.9,472,430.7,496,384.6,505z"/>
<path class="insideShoe" fill="none" stroke="#000000" stroke-width="3" stroke-linecap="round" stroke-linejoin="round" stroke-miterlimit="10" d="
	M380.7,488.7c-25.1,4.8-52.4,8.9-74.8,4c-22.4-4.9-66.3-33.9-67.5-81.5c-16.8-103.7-31.1-213.6-16.2-264.8
	c14.3-30.8,51.8-79.4,92.3-95.3c45.7-17,83.2-22.5,112.9-16.9c23.8,18.3,36,48.9,45.7,82.5c1.3,51.1,6.8,70.8-22.1,129.9
	c-14.9,75.3-18.8,87-10.3,172.6C438.5,457.7,422.1,480.2,380.7,488.7z"/>
<path class="strap" fill="none" stroke="#000000" stroke-width="0" stroke-linecap="round" stroke-linejoin="round" stroke-miterlimit="10" d="
	M203.3,251.7c-28.5-24.9,7.5-118.9,9.6-121.9c27.6-38.1,264.4-2.9,275.2,9.6c27.2,31.6-23.2,128-29.8,125.8
	C441.4,259.6,203.3,251.7,203.3,251.7z"/>
<path class="topSensor" fill="none" stroke="#000000" stroke-width="4" stroke-miterlimit="10" d="M374.2,38.5L374.2,38.5c55.2,0,88,11.5,100,100
	c0,35.5-31.2,94.6-140.2,94.6C201.8,222,192.4,70,374.2,38.5z"/>
<path class="bottomSensor" fill="none" stroke="#000000" stroke-width="4" stroke-miterlimit="10" d="M332.4,494.5c-52.2,0-85.1-27.3-93-90.5
	c0.4-59,45.6-78.7,102.6-78c41-1.1,93.8,20.3,95,81.5C446.2,471.5,403.9,494.6,332.4,494.5z"/>
</svg>
