<?xml version="1.0" encoding="utf-8"?>
<!-- Generator: Adobe Illustrator 18.0.0, SVG Export Plug-In . SVG Version: 6.00 Build 0)  -->
<!DOCTYPE svg PUBLIC "-//W3C//DTD SVG 1.1//EN" "http://www.w3.org/Graphics/SVG/1.1/DTD/svg11.dtd">
<svg version="1.1" id="Layer_1" xmlns="http://www.w3.org/2000/svg" xmlns:xlink="http://www.w3.org/1999/xlink" x="0px" y="0px"
	 viewBox="94 15 294 473" enable-background="new 0 0 500 500" xml:space="preserve">
<path class="outsideShoe" fill="none" stroke="#000000" stroke-width="3" stroke-linecap="round" stroke-linejoin="round" stroke-miterlimit="10" d="
	M279.4,478.5c-26.3,4.8-55.1,8.9-78.7,4s-69.7-34.1-71-82c-17.7-104.4-32.6-215-17-266.4c15-31,54.5-79.9,97-96
	c48-17.1,87.4-22.7,118.7-17c25,18.5,37.9,49.2,48,83c1.3,51.4,7.2,71.3-23.2,130.8c-15.7,75.8-19.8,87.6-10.8,173.7
	C340.2,447.3,323,470,279.4,478.5z"/>
<path class="insideShoe" fill="none" stroke="#000000" stroke-width="3" stroke-linecap="round" stroke-linejoin="round" stroke-miterlimit="10" d="
	M275.7,463.1c-23.7,4.5-49.6,8.4-70.8,3.8s-62.7-32.1-63.9-77.1c-15.9-98.1-29.4-202.1-15.3-250.5c13.5-29.1,49-75.1,87.3-90.2
	c43.2-16.1,78.7-21.3,106.8-16c22.5,17.3,34.1,46.3,43.2,78c1.2,48.3,6.4,67-20.9,122.9c-14.1,71.2-17.8,82.3-9.7,163.3
	C330.4,433.8,314.9,455.1,275.7,463.1z"/>
<path class="strap" fill="none" stroke="#000000" stroke-width="3" stroke-linecap="round" stroke-linejoin="round" stroke-miterlimit="10" d="
	M107.9,238.9c-27-23.6,7.1-112.5,9.1-115.3c26.1-36,250.1-2.7,260.3,9.1c25.7,29.9-21.9,121.1-28.2,119
	C333.1,246.4,107.9,238.9,107.9,238.9z"/>
</svg>
