<?xml version="1.0" encoding="utf-8"?>
<!-- Generator: Adobe Illustrator 18.0.0, SVG Export Plug-In . SVG Version: 6.00 Build 0)  -->
<!DOCTYPE svg PUBLIC "-//W3C//DTD SVG 1.1//EN" "http://www.w3.org/Graphics/SVG/1.1/DTD/svg11.dtd">
<svg class="rightSandal" id="rightSandal" version="1.1" id="Layer_1" xmlns="http://www.w3.org/2000/svg" xmlns:xlink="http://www.w3.org/1999/xlink" x="0px" y="0px"
	 viewBox="197 17 292 497" enable-background="new 0 0 500 500" xml:space="preserve">
<path class="outsideShoe" fill="none" stroke="#000000" stroke-width="3" stroke-linecap="round" stroke-linejoin="round" stroke-miterlimit="10" d="
	M303.7,505c27.8,5.1,58.2,9.4,83.2,4.2c24.9-5.2,73.7-36,75.1-86.7c18.7-110.4,34.5-227.3,18-281.6
	c-15.9-32.8-57.6-84.5-102.5-101.5c-50.7-18.1-92.4-24-125.5-18c-26.4,19.6-40.1,52-50.7,87.7c-1.4,54.3-7.6,75.4,24.5,138.3
	c16.6,80.1,20.9,92.6,11.4,183.6C239.6,472,257.7,496,303.7,505z"/>
<path class="insideShoe" fill="none" stroke="#000000" stroke-width="3" stroke-linecap="round" stroke-linejoin="round" stroke-miterlimit="10" d="
	M307.7,488.7c25.1,4.8,52.4,8.9,74.8,4c22.4-4.9,66.3-33.9,67.5-81.5c16.8-103.7,31.1-213.6,16.2-264.8C452,115.6,414.5,67,374,51
	c-45.7-17-83.2-22.5-112.9-16.9c-23.8,18.3-36,48.9-45.7,82.5c-1.3,51.1-6.8,70.8,22.1,129.9c14.9,75.3,18.8,87,10.3,172.6
	C249.9,457.7,266.3,480.2,307.7,488.7z"/>
<path class="strap" fill="none" stroke="#000000" stroke-width="0" stroke-linecap="round" stroke-linejoin="round" stroke-miterlimit="10" d="
	M485.1,251.7c28.5-24.9-7.5-118.9-9.6-121.9c-27.6-38.1-264.4-2.9-275.2,9.6c-27.2,31.6,23.2,128,29.8,125.8
	C247,259.6,485.1,251.7,485.1,251.7z"/>
<path class="topSensor" fill="none" stroke="#000000" stroke-width="4" stroke-miterlimit="10" d="M314.2,37.3L314.2,37.3c-55.2,0-88,11.5-100,100
	c0,35.5,31.2,94.6,140.2,94.6C486.6,220.8,496.1,68.8,314.2,37.3z"/>
<path class="bottomSensor" fill="none" stroke="#000000" stroke-width="4" stroke-miterlimit="10" d="M356,493.2c52.2,0,85.1-27.3,93-90.5
	c-0.4-59-45.6-78.7-102.6-78c-41-1.1-93.8,20.3-95,81.5C242.2,470.3,284.5,493.4,356,493.2z"/>
</svg>
